<svg width="77" height="107" viewBox="0 0 77 107" fill="none" xmlns="http://www.w3.org/2000/svg"><path d="M70.103 63.203c-1.795-.37-3.78.017-6.043 1.174L47.883 72.35c.013-.153.026-.3.04-.442.08-.953-.024-1.988-.306-3.08-.603-2.337-1.982-4.26-3.776-5.28-.034-.02-.047-.024-.08-.042-.188-.093-5.355-2.755-7.324-3.768l-12.043-6.284a5.5 5.5 0 0 0-2.636-.65c-3.505 0-6.909 1.75-9.346 4.806a16.1 16.1 0 0 0-.614.827c-.719 1.037-1.508 2.037-2.5 2.816l-7.542 5.919c-.813.64-1 1.875-.415 2.764.586.889 1.717 1.09 2.532.453l6.701-5.26c1.769-1.389 3.164-3.161 4.571-4.915 1.746-2.19 4.155-3.445 6.611-3.445.386 0 .735.081 1.055.254l12.068 6.298c5.873 3.027 7.059 3.635 7.312 3.766.9.523 1.6 1.55 1.933 2.826.16.622.222 1.174.184 1.643-.05.583-.104 1.242-.26 1.706-.553 1.69-1.797 2.78-3.17 2.78-.425 0-.845-.105-1.246-.314L29.387 70.41c-.904-.47-1.987-.049-2.416.94-.43.987-.044 2.17.86 2.639l10.245 5.318c.89.464 1.834.7 2.803.7 1.798 0 3.466-.807 4.735-2.185l19.961-9.837c1.573-.803 2.834-1.092 3.857-.883.771.159 1.549.739 2.127 1.587.977 1.432 1.214 3.466.583 4.945-.272.633-.654 1.047-1.405 1.528L45.984 90.931a1.63 1.63 0 0 0-.161.117c-2.627 2.11-5.098 2.52-7.548 1.25l-4.554-2.368-.152-.079c-6.803-3.497-14.512-7.457-22.116-5.188l-6.399 1.91c-.965.288-1.535 1.378-1.272 2.433.265 1.054 1.262 1.677 2.228 1.389l6.398-1.91c6.313-1.884 13.38 1.748 19.612 4.951l4.699 2.441c1.419.733 2.87 1.097 4.331 1.097 2.29 0 4.6-.897 6.841-2.673l24.673-15.723c.938-.597 2.109-1.508 2.863-3.274 1.191-2.786.805-6.4-.962-8.988-1.134-1.661-2.683-2.766-4.364-3.115l.002.001z" fill="#fff" stroke="#fff" stroke-width=".2"/><path d="M43 20.044v12.422m6-6.775h-7.636c-.737 0-1.489.377-2.182.377-.342 0-2.058.153-2.182.753" stroke="#fff" stroke-width="3.8" stroke-linecap="round"/><path d="M69.36 8.715c-9.864-12.469-22.143-4.612-26.063 0-6.145-2.83-18.342-10.209-25.426 3.46-6.358 12.264 4.897 19.007 12.713 26.998 8.054 8.233 14.654 11.683 15.574 8.852 1.352-4.164 9.814-8.2 16.845-14.75 7.836-7.3 12.078-17.327 6.356-24.56z" stroke="#fff" stroke-width="3.8" stroke-linecap="round"/></svg>