<svg width="49" height="47" viewBox="0 0 49 47" fill="none" xmlns="http://www.w3.org/2000/svg"><path d="M27.14 44.18c-5.516-2.38-10.448-6.786-15.079-10.548-2.023-1.644-3.574-3.786-5.547-5.44-1.385-1.163-2.641-2.597-3.055-4.398-1.678-7.317.615-17.098 8.17-20.078 2.477-.977 5.837-1.892 8.46-.999 2.115.72 4.208 1.746 6.241 2.678.898.411.978 1.075 1.027 1.933.078 1.341 1.102 2.513 1.482 3.768.172.567-.076 1.929.475 1.712.889-.351.67-3.205 1.61-3.576 2.748-1.084 6.035-1.32 9.014-.627 3.367.783 7.505 5.03 6.621 8.768-.61 2.58-.98 4.887-2.047 7.36-1 2.317-3.105 4.34-4.987 6.007-4.41 3.906-8.676 7.62-11.052 13.123" stroke="#0075FF" stroke-width="4" stroke-linecap="round"/></svg>