<svg width="37" height="38" viewBox="0 0 37 38" fill="none" xmlns="http://www.w3.org/2000/svg"><path d="M30.362 11.294C28.453 5.684 26.256 4.5 25.1 4.5c-1.452 0-2.537 1.235-2.826 2.47-.578 2.471-.063 9.883-.063 12.971 0 2.47 1.748 3.096 2.89 3.706 1.155.618 2.25 1.853 3.467 1.853 1.156 0 2.31-.618 2.888-1.853.579-1.235 1.218-5.559-1.094-12.353zm-26.724 0C5.547 5.684 7.744 4.5 8.9 4.5c1.452 0 2.537 1.235 2.826 2.47.578 2.471.063 9.883.063 12.971 0 2.47-1.748 3.096-2.89 3.706-1.155.618-2.25 1.853-3.467 1.853a3.154 3.154 0 0 1-2.888-1.853c-.579-1.235-1.218-5.559 1.094-12.353z" stroke="#BBC5D0" stroke-width="2.8"/><path d="M16.938 1.5c0 3.375.988 8.1-4.938 9" stroke="#BBC5D0" stroke-width="2.8"/><path d="M17.062 1.5c0 3.375-.988 8.1 4.938 9" stroke="#BBC5D0" stroke-width="2.8"/></svg>