<svg width="36" height="36" viewBox="0 0 36 36" fill="none" xmlns="http://www.w3.org/2000/svg"><path d="M12.4 4.5c2.151 0 4.114 1.122 5.6 2.4 1.486-1.278 3.449-2.4 5.6-2.4 4.64 0 8.4 3.614 8.4 8.072 0 8.988-9.765 14.223-12.984 15.704a2.417 2.417 0 0 1-2.032 0C13.765 26.795 4 21.56 4 12.572 4 8.114 7.76 4.5 12.4 4.5z" stroke="#0075FF" stroke-width="2.8"/><path d="M13.8 11c1.23 0 3.35 1.108 4.2 1.8.85-.692 2.97-1.8 4.2-1.8 2.651 0 3.8 1.458 3.8 3.872 0 4.313-4.834 7.518-7.216 8.751a1.697 1.697 0 0 1-1.568 0C14.834 22.39 10 19.185 10 14.873 10 12.457 11.149 11 13.8 11z" stroke="#0075FF" stroke-width="2.3"/></svg>