<svg width="37" height="36" viewBox="0 0 37 36" fill="none" xmlns="http://www.w3.org/2000/svg"><g clip-path="url(#a)" stroke="#0075FF"><path d="M2.468 20.785c-.235-2.027-.4-4.067-.4-5.785s.165-3.758.4-5.785c.525-4.52 4.508-7.815 9.2-7.815 4.692 0 8.675 3.295 9.2 7.815.235 2.027.4 4.067.4 5.785s-.165 3.758-.4 5.785c-.525 4.52-4.508 7.815-9.2 7.815-4.692 0-8.675-3.295-9.2-7.815z" stroke-width="2.8"/><path d="m26.218 18.794.692-.621a2.96 2.96 0 0 1 4.339.416v0a2.96 2.96 0 0 1-.306 3.918l-5.166 4.981h7.057" stroke-width="2.3" stroke-linecap="round" stroke-linejoin="round"/></g><defs><clipPath id="a"><path fill="#fff" transform="translate(.668)" d="M0 0h36v36H0z"/></clipPath></defs></svg>