<svg width="36" height="37" viewBox="0 0 36 37" fill="none" xmlns="http://www.w3.org/2000/svg"><path d="M27.25 18c0 4.622-1.127 8.74-2.875 11.654-1.766 2.943-4.01 4.446-6.225 4.446-2.214 0-4.458-1.503-6.224-4.446C10.177 26.74 9.05 22.622 9.05 18s1.127-8.74 2.876-11.654C13.692 3.403 15.936 1.9 18.15 1.9c2.215 0 4.459 1.503 6.225 4.446C26.123 9.26 27.25 13.378 27.25 18z" stroke="#0075FF" stroke-width="2.8"/><path d="M21.537 9.553c4.29 1.72 7.693 4.299 9.747 7.007 2.074 2.734 2.634 5.376 1.81 7.432-.824 2.055-3.055 3.578-6.443 4.122-3.356.538-7.597.052-11.887-1.668s-7.692-4.299-9.747-7.007c-2.074-2.733-2.634-5.376-1.81-7.431.824-2.056 3.055-3.58 6.443-4.123 3.356-.538 7.597-.052 11.887 1.668z" stroke="#0075FF" stroke-width="2.8"/></svg>