<svg width="110" height="105" viewBox="0 0 110 105" fill="none" xmlns="http://www.w3.org/2000/svg"><path d="M46.379 31.702a6.967 6.967 0 0 0 5-2.144 7.445 7.445 0 0 0 2.075-5.167v-2.978c-.005-2.609-1.353-5.018-3.54-6.321a6.876 6.876 0 0 0-7.068 0c-2.188 1.303-3.537 3.712-3.541 6.321v2.978a7.44 7.44 0 0 0 2.074 5.167 6.968 6.968 0 0 0 5 2.144zM42.13 21.413h.001c.003-1.565.814-3.012 2.127-3.793a4.127 4.127 0 0 1 4.242 0c1.314.781 2.124 2.228 2.127 3.793v2.978a4.471 4.471 0 0 1-1.24 3.111 4.182 4.182 0 0 1-3.008 1.289 4.18 4.18 0 0 1-3.007-1.289 4.464 4.464 0 0 1-1.24-3.111l-.002-2.978z" fill="#fff"/><path d="M56.038 56.93a28.517 28.517 0 0 1-.397-11.08l.136-.847c.291-1.804 1.488-3.31 3.142-3.958l11.152-4.342c.955-.375 1.587-1.32 1.59-2.375v-3.11c0-.79-.355-1.535-.963-2.015a2.39 2.39 0 0 0-2.134-.435l-12.649 3.54c-.046.008-.09.018-.136.03l-7.031 1.957a8.85 8.85 0 0 1-4.74 0l-7.031-1.957a1.547 1.547 0 0 0-.135-.03l-12.65-3.54a2.39 2.39 0 0 0-2.134.434 2.569 2.569 0 0 0-.964 2.016v3.11c.004 1.055.636 2 1.59 2.375l11.152 4.343c1.654.647 2.851 2.153 3.143 3.956l.136.848a28.53 28.53 0 0 1-.397 11.08L30.9 81.722a2.03 2.03 0 0 0 .357 1.69c.362.476.918.755 1.505.755h2.532a5.163 5.163 0 0 0 3.097-1.033 5.443 5.443 0 0 0 1.92-2.714l6.05-18.92.004-.01c.011-.003.024-.005.02-.011a.086.086 0 0 1 .009.021l6.05 18.92a5.453 5.453 0 0 0 1.921 2.714 5.162 5.162 0 0 0 3.096 1.033h2.534c.587 0 1.142-.279 1.505-.755a2.03 2.03 0 0 0 .355-1.69L56.038 56.93zm1.424 24.317c-1.06 0-2.003-.702-2.334-1.744l-6.05-18.92c-.385-1.203-1.474-2.015-2.7-2.015-1.227 0-2.316.812-2.7 2.016l-6.05 18.92c-.333 1.04-1.274 1.744-2.334 1.742H33.92l5.544-23.628a31.537 31.537 0 0 0 .438-12.245l-.136-.848c-.458-2.83-2.337-5.197-4.934-6.213L23.92 34.063v-2.345l12.32 3.448c.045.013.092.023.138.031l6.894 1.918c2.034.565 4.175.565 6.21 0l6.892-1.917c.047-.008.094-.018.14-.031l12.32-3.448v2.345l-10.912 4.249v-.001c-2.598 1.016-4.477 3.383-4.935 6.213l-.136.848a31.531 31.531 0 0 0 .439 12.245l5.544 23.628-1.373.001z" fill="#fff"/><path d="M87.05 48.047c1.813-24.275-17.495-55.525-55.555-41.61-42.393 15.5-29.975 66.919-10.826 78.908 19.148 11.988 44.042 9.99 59.36-6.66 12.256-13.322 13.618-33.969 12.767-42.627" stroke="#fff" stroke-width="3.8" stroke-linecap="round"/></svg>