<svg width="39" height="52" viewBox="0 0 39 52" fill="none" xmlns="http://www.w3.org/2000/svg"><path d="M22.338 49.855c0-2.826-1.797-4.95-3.402-7.403-1.038-1.587-2.847-2.475-5.344-3.962-2.497-1.487-3.67-2.86-5.588-5.4-1.919-2.54-2.94-3.895-3.617-5.965-.845-2.584-1.485-5.135-1.485-7.829 0-1.528.91-7.15 1.944-8.913.614-1.048.86-1.42 2.186-2.97C8.36 5.86 9.272 5.64 10.406 5.077c1.136-.563 4.464-1.46 7.802-1.91 3.337-.45 5.029-.498 8.503.424 3.474.923 6.038 3.455 6.802 4.433.764.979 1.536.703 2.915 5.33 1.38 4.625-.58 10.062-1.697 12.257-4.59 9.021-11.908 12.179-11.908 22.546" stroke="#0082FF" stroke-width="4" stroke-linecap="round"/><path d="M22.402 15.216c-.129-1.256-2.5-1.86-3.864-1.361-1.364.5-2.258.77-2.848 1.866-.59 1.095-.536 1.35-.59 1.651a10.585 10.585 0 0 0-.198 2.043c0 1.747.926 3.905 2.238 4.703 2.162 1.316 7.128.844 8.262-2.263.514-1.408 1-3.011.5-4.256-.5-1.244-1.5-2.244-2.61-2.383" stroke="#0082FF" stroke-width="4" stroke-linecap="round"/></svg>