<svg width="77" height="107" viewBox="0 0 77 107" fill="none" xmlns="http://www.w3.org/2000/svg">
<path d="M70.1029 63.2033C68.3082 62.8325 66.3238 63.2205 64.06 64.3774L47.8833 72.349C47.8962 72.1965 47.9092 72.0489 47.9221 71.9075C48.0026 70.9537 47.899 69.9191 47.6168 68.827C47.0136 66.49 45.6352 64.5662 43.8405 63.5479C43.8072 63.5276 43.7943 63.5226 43.7601 63.5054C43.5732 63.4125 38.4056 60.7502 36.4368 59.7368L24.3944 53.4534C23.5914 53.021 22.7033 52.8027 21.7578 52.8027C18.2534 52.8027 14.849 54.5537 12.4122 57.609C12.2007 57.8749 11.9953 58.1516 11.7981 58.4361C11.0791 59.4733 10.2904 60.4729 9.29768 61.252L1.75583 67.171C0.94265 67.8106 0.755767 69.0463 1.34138 69.9355C1.92699 70.8236 3.05839 71.0247 3.87262 70.3882L10.5741 65.1278C12.343 63.7392 13.738 61.967 15.1452 60.2128V60.2128C16.8909 58.0234 19.2999 56.7676 21.7561 56.7676C22.1418 56.7676 22.4915 56.8494 22.8107 57.0222L34.8789 63.3199C40.7515 66.3469 41.9376 66.9552 42.191 67.0856C43.0902 67.609 43.7914 68.6355 44.1236 69.9116C44.2845 70.534 44.3465 71.0857 44.3077 71.5555C44.2586 72.1385 44.2041 72.7973 44.0486 73.261C43.4945 74.9503 42.2511 76.0415 40.8782 76.0415C40.4535 76.0415 40.0335 75.9365 39.632 75.7273L29.3872 70.4089C28.4834 69.9391 27.4001 70.3604 26.9709 71.3485C26.5407 72.3357 26.9265 73.5188 27.8312 73.9876L38.076 79.306C38.9669 79.7698 39.9096 80.0052 40.8792 80.0052C42.6766 80.0052 44.3447 79.1989 45.6139 77.8208L65.5751 67.9839C67.1478 67.1807 68.4088 66.8917 69.4319 67.1009C70.2034 67.2595 70.9805 67.8395 71.5587 68.6881C72.5357 70.1198 72.7734 72.1536 72.1416 73.6328C71.8696 74.2663 71.4884 74.6795 70.7372 75.1605L45.9837 90.9323C45.9291 90.9667 45.8746 91.0061 45.8227 91.0485C43.1963 93.1592 40.7254 93.5694 38.2747 92.2993L33.7212 89.9311L33.5685 89.8522C26.7661 86.3553 19.0572 82.3948 11.4526 84.6639L5.05441 86.5735C4.08859 86.8625 3.5187 87.9516 3.78237 89.0065C4.04695 90.0613 5.04422 90.6837 6.01004 90.3957L12.4082 88.4861C18.7212 86.6018 25.7873 90.234 32.0199 93.437L36.7187 95.878C38.1378 96.6105 39.5883 96.9753 41.05 96.9753C43.3397 96.9753 45.6507 96.0781 47.8914 94.3019L72.5643 78.5786C73.5024 77.9815 74.6727 77.0712 75.4267 75.3051C76.6182 72.5186 76.2324 68.9055 74.4655 66.3169C73.3313 64.6559 71.7817 63.5506 70.1007 63.202L70.1029 63.2033Z" fill="white" stroke="white" stroke-width="0.2"/>
<path d="M43 20.0439C43 24.1742 43 28.3999 43 32.4659" stroke="white" stroke-width="3.8" stroke-linecap="round"/>
<path d="M49 25.6914C46.4545 25.6914 43.9091 25.6914 41.3636 25.6914C40.6269 25.6914 39.8751 26.0678 39.1818 26.0678C38.8398 26.0678 37.1242 26.2206 37 26.8207" stroke="white" stroke-width="3.8" stroke-linecap="round"/>
<path d="M69.3595 8.71489C59.4963 -3.75381 47.2171 4.10251 43.2972 8.71489C37.1524 5.88475 24.9552 -1.49361 17.8706 12.1747C11.5134 24.4395 22.7684 31.1822 30.5845 39.1728C38.6377 47.4059 45.2382 50.8558 46.1577 48.0255C47.5105 43.8611 55.9722 39.8249 63.0032 33.2745C70.839 25.9743 75.0809 15.9477 69.3595 8.71489Z" stroke="white" stroke-width="3.8" stroke-linecap="round"/>
</svg>
