<svg width="49" height="47" viewBox="0 0 49 47" fill="none" xmlns="http://www.w3.org/2000/svg">
<path d="M27.1392 44.1805C21.6242 41.7995 16.6924 37.3942 12.0614 33.632C10.0384 31.9884 8.48699 29.8456 6.51436 28.1913C5.12858 27.0292 3.87269 25.595 3.45936 23.7935C1.78079 16.4774 4.07444 6.69581 11.6289 3.71585C14.1056 2.73888 17.4658 1.8241 20.0891 2.717C22.2037 3.43672 24.2972 4.46334 26.3302 5.39496C27.2276 5.80619 27.3078 6.47047 27.3574 7.32819C27.4349 8.66919 28.4585 9.8415 28.839 11.0964C29.0108 11.663 28.7628 13.025 29.3137 12.8077C30.2027 12.457 29.9833 9.60316 30.9239 9.23215C33.6725 8.1479 36.9592 7.91234 39.9384 8.60503C43.3049 9.38778 47.4429 13.635 46.5591 17.3729C45.9491 19.9531 45.5797 22.2596 44.5121 24.7325C43.5114 27.0503 41.4067 29.0726 39.5247 30.74C35.1157 34.6461 30.8488 38.3605 28.4733 43.8626" stroke="#0075FF" stroke-width="4" stroke-linecap="round"/>
</svg>
