<svg width="37" height="38" viewBox="0 0 37 38" fill="none" xmlns="http://www.w3.org/2000/svg">
<path d="M30.3624 11.2941C28.4534 5.68324 26.2558 4.5 25.1002 4.5C23.6481 4.5 22.5632 5.73529 22.2743 6.97059C21.6964 9.44118 22.2111 16.8529 22.2111 19.9412C22.2111 22.4118 23.9587 23.0368 25.1004 23.6471C26.2558 24.2647 27.3507 25.5 28.5682 25.5C29.7238 25.5 30.8778 24.8821 31.4562 23.6471C32.0347 22.412 32.6741 18.0882 30.3624 11.2941Z" stroke="#BBC5D0" stroke-width="2.8"/>
<path d="M3.63756 11.2941C5.5466 5.68324 7.74422 4.5 8.89983 4.5C10.3519 4.5 11.4368 5.73529 11.7257 6.97059C12.3036 9.44118 11.7889 16.8529 11.7889 19.9412C11.7889 22.4118 10.0413 23.0368 8.89963 23.6471C7.74422 24.2647 6.64933 25.5 5.43179 25.5C4.27617 25.5 3.12217 24.8821 2.54375 23.6471C1.96534 22.412 1.32594 18.0882 3.63756 11.2941Z" stroke="#BBC5D0" stroke-width="2.8"/>
<path d="M16.9383 1.5C16.9383 4.875 17.9259 9.6 12 10.5" stroke="#BBC5D0" stroke-width="2.8"/>
<path d="M17.0617 1.5C17.0617 4.875 16.0741 9.6 22 10.5" stroke="#BBC5D0" stroke-width="2.8"/>
</svg>
