<svg width="36" height="36" viewBox="0 0 36 36" fill="none" xmlns="http://www.w3.org/2000/svg">
<path d="M12.4 4.5C14.5514 4.5 16.5139 5.62189 18 6.9C19.4861 5.62189 21.4486 4.5 23.6 4.5C28.2392 4.5 32 8.11399 32 12.5718C32 21.56 22.2349 26.7947 19.0157 28.2762C18.3673 28.5746 17.6327 28.5746 16.9843 28.2762C13.7651 26.7947 4 21.5598 4 12.5716C4 8.11378 7.76081 4.5 12.4 4.5Z" stroke="#0075FF" stroke-width="2.8"/>
<path d="M13.8 11C15.0294 11 17.1508 12.1077 18 12.8C18.8492 12.1077 20.9706 11 22.2 11C24.851 11 26 12.4576 26 14.8722C26 19.1848 21.1664 22.3895 18.7838 23.623C18.2897 23.8788 17.7103 23.8788 17.2162 23.623C14.8336 22.3895 10 19.1847 10 14.8721C10 12.4575 11.149 11 13.8 11Z" stroke="#0075FF" stroke-width="2.3"/>
</svg>
