<svg width="37" height="36" viewBox="0 0 37 36" fill="none" xmlns="http://www.w3.org/2000/svg">
<g clip-path="url(#clip0_4392_20183)">
<path d="M2.46831 20.7854C2.23293 18.7582 2.06797 16.718 2.06797 15C2.06797 13.282 2.23293 11.2418 2.46831 9.21459C2.99311 4.69463 6.97558 1.4 11.668 1.4C16.3604 1.4 20.3428 4.69463 20.8676 9.21459C21.103 11.2418 21.268 13.282 21.268 15C21.268 16.718 21.103 18.7582 20.8676 20.7854C20.3428 25.3054 16.3604 28.6 11.668 28.6C6.97558 28.6 2.99311 25.3054 2.46831 20.7854Z" stroke="#0075FF" stroke-width="2.8"/>
<path d="M26.2184 18.7936L26.9096 18.1729C28.1991 17.015 30.2028 17.2073 31.2486 18.5891V18.5891C32.153 19.7842 32.0217 21.4666 30.9428 22.507L25.7773 27.488H32.8336" stroke="#0075FF" stroke-width="2.3" stroke-linecap="round" stroke-linejoin="round"/>
</g>
<defs>
<clipPath id="clip0_4392_20183">
<rect width="36" height="36" fill="white" transform="translate(0.667969)"/>
</clipPath>
</defs>
</svg>
