<svg width="36" height="37" viewBox="0 0 36 37" fill="none" xmlns="http://www.w3.org/2000/svg">
<path d="M27.2504 18C27.2504 22.6224 26.1233 26.7394 24.3745 29.6541C22.609 32.5966 20.3649 34.1 18.1504 34.1C15.9359 34.1 13.6918 32.5966 11.9263 29.6541C10.1774 26.7394 9.05039 22.6224 9.05039 18C9.05039 13.3776 10.1774 9.26063 11.9263 6.34593C13.6918 3.40336 15.9359 1.9 18.1504 1.9C20.3649 1.9 22.609 3.40336 24.3745 6.34593C26.1233 9.26063 27.2504 13.3776 27.2504 18Z" stroke="#0075FF" stroke-width="2.8"/>
<path d="M21.5374 9.55338C25.8277 11.2737 29.2295 13.852 31.284 16.56C33.3581 19.2938 33.9183 21.9362 33.0941 23.9916C32.2699 26.0471 30.0394 27.5704 26.6511 28.114C23.2949 28.6524 19.0542 28.1663 14.7639 26.446C10.4736 24.7257 7.0718 22.1474 5.01733 19.4394C2.94323 16.7055 2.38304 14.0632 3.20722 12.0077C4.0314 9.95228 6.26193 8.42893 9.6502 7.88536C13.0064 7.34693 17.2471 7.83307 21.5374 9.55338Z" stroke="#0075FF" stroke-width="2.8"/>
</svg>
