<svg width="110" height="105" viewBox="0 0 110 105" fill="none" xmlns="http://www.w3.org/2000/svg">
<path d="M46.3789 31.7024C48.2551 31.7 50.0535 30.9296 51.3799 29.5579C52.7063 28.1872 53.4518 26.3294 53.4541 24.3906V21.4133C53.4495 18.8043 52.1006 16.3951 49.9132 15.0917C47.7264 13.7884 45.0325 13.7884 42.8457 15.0917C40.6581 16.395 39.3085 18.8041 39.3047 21.4133V24.3906C39.3062 26.3295 40.0525 28.1872 41.3789 29.5579C42.7053 30.9295 44.5039 31.6999 46.3791 31.7024H46.3789ZM42.1304 21.4133H42.1312C42.1343 19.8476 42.945 18.4015 44.2581 17.6197C45.5705 16.8373 47.1872 16.8373 48.5005 17.6197C49.8136 18.4014 50.6244 19.8476 50.6274 21.4133V24.3906C50.6297 25.5567 50.1832 26.6762 49.3865 27.5021C48.5897 28.327 47.5072 28.7909 46.3789 28.7909C45.2505 28.7909 44.1688 28.327 43.372 27.5021C42.5745 26.6763 42.128 25.5567 42.1311 24.3906L42.1304 21.4133Z" fill="white"/>
<path d="M56.0377 56.9306C55.182 53.3025 55.0468 49.5329 55.6409 45.8501L55.7768 45.0027C56.068 43.1994 57.2647 41.6932 58.9188 41.0454L70.071 36.7029V36.7037C71.0262 36.3281 71.6583 35.3836 71.6614 34.3284V31.2185C71.6614 30.428 71.3057 29.6825 70.6977 29.2026C70.0904 28.7219 69.3014 28.5614 68.5638 28.7684L55.9152 32.3083C55.8694 32.3163 55.8244 32.3259 55.7793 32.3387L48.7476 34.2953V34.2945C47.1953 34.7254 45.5607 34.7254 44.0083 34.2945L36.9766 32.3379C36.9323 32.3259 36.8873 32.3155 36.8415 32.3074L24.1922 28.7683C23.4537 28.5612 22.6647 28.7217 22.0575 29.2024C21.4502 29.6823 21.0938 30.4279 21.0938 31.2183V34.3282C21.0976 35.3835 21.7297 36.328 22.6841 36.7035L33.8363 41.046V41.0452C35.4904 41.6928 36.6871 43.1991 36.9791 45.0025L37.115 45.85C37.7083 49.5328 37.574 53.3021 36.7182 56.9304L30.9002 81.7215C30.7619 82.3113 30.8932 82.9341 31.2566 83.4116C31.6193 83.8883 32.1745 84.1668 32.7616 84.1668H35.2939C36.4059 84.1684 37.4892 83.8064 38.3907 83.1339C39.2915 82.4606 39.9641 81.5112 40.3112 80.4198L46.3614 61.5004C46.3629 61.4955 46.3645 61.4915 46.3653 61.4891C46.3762 61.4867 46.3886 61.4851 46.3855 61.4787C46.3894 61.4851 46.3917 61.4923 46.394 61.5004L52.4442 80.4198C52.7921 81.5104 53.4646 82.4606 54.3654 83.1339C55.2662 83.8064 56.3503 84.1684 57.4615 84.1668H59.9946C60.5817 84.1668 61.1369 83.8883 61.4996 83.4116C61.863 82.9341 61.9942 82.3113 61.8552 81.7215L56.0377 56.9306ZM57.4619 81.2471L57.4612 81.2463C56.4012 81.2479 55.4593 80.5449 55.1285 79.5032L49.0782 60.5838H49.0775C48.6931 59.38 47.6043 58.5678 46.3774 58.5678C45.1512 58.5678 44.0624 59.38 43.6773 60.5838L37.6271 79.5032C37.2955 80.5449 36.3543 81.2479 35.2936 81.2463H33.9207L39.4653 57.618V57.6189C40.4104 53.6094 40.5595 49.4436 39.9033 45.3725L39.7674 44.525C39.3092 41.6946 37.43 39.3279 34.8332 38.312L23.921 34.0633L23.9202 31.7184L36.2404 35.166C36.2862 35.1788 36.3328 35.1892 36.3794 35.1973L43.2729 37.1153C45.3066 37.6803 47.4484 37.6803 49.4822 37.1153L56.3749 35.1981C56.4215 35.19 56.4688 35.1796 56.5147 35.1668L68.8348 31.7192V34.0641L57.9226 38.3128V38.3119C55.3251 39.3279 53.4464 41.6946 52.9884 44.525L52.8525 45.3725C52.1963 49.4436 52.3454 53.6096 53.2905 57.618L58.8351 81.2463L57.4619 81.2471Z" fill="white"/>
<path d="M87.0505 48.0474C88.8632 23.7723 69.5547 -7.47842 31.4948 6.43741C-10.8978 21.9374 1.5202 73.3559 20.6688 85.3446C39.8173 97.3333 64.7111 95.3352 80.0299 78.6842C92.285 65.3635 93.6467 44.7162 92.7957 36.0577" stroke="white" stroke-width="3.8" stroke-linecap="round"/>
</svg>
