<svg width="39" height="52" viewBox="0 0 39 52" fill="none" xmlns="http://www.w3.org/2000/svg">
<path d="M22.3376 49.8555C22.3376 47.029 20.5408 44.9041 18.9364 42.4515C17.8985 40.8648 16.0887 39.9772 13.5917 38.4901C11.0947 37.003 9.92293 35.6308 8.0041 33.0904C6.08526 30.5499 5.06416 29.1951 4.38698 27.1247C3.54183 24.5408 2.90234 21.9896 2.90234 19.2963C2.90234 17.7681 3.81175 12.1463 4.84587 10.3832C5.46045 9.33545 5.70589 8.96301 7.03233 7.41219C8.35878 5.86138 9.27132 5.641 10.4065 5.07781C11.5417 4.51462 14.8701 3.61814 18.2076 3.16787C21.5452 2.71759 23.2365 2.66997 26.7105 3.5923C30.1845 4.51462 32.7489 7.04671 33.5129 8.02526C34.2768 9.00382 35.0486 8.72832 36.4282 13.3543C37.8077 17.9802 35.848 23.4174 34.7315 25.6118C30.1415 34.6333 22.8235 37.7905 22.8235 48.1577" stroke="#0082FF" stroke-width="4" stroke-linecap="round"/>
<path d="M22.4023 15.2164C22.2734 13.9603 19.9023 13.3553 18.5379 13.8547C17.1735 14.3542 16.2799 14.6252 15.6895 15.7208C15.0991 16.8163 15.1541 17.0715 15.0991 17.3724C14.9744 18.0555 14.9023 18.6413 14.9023 19.415C14.9023 21.1623 15.8281 23.3196 17.1396 24.1179C19.3021 25.434 24.268 24.9616 25.4023 21.8547C25.9164 20.4468 26.4023 18.844 25.9023 17.5994C25.4023 16.3547 24.4023 15.3547 23.2922 15.2164" stroke="#0082FF" stroke-width="4" stroke-linecap="round"/>
</svg>
